<svg id="visual" viewBox="0 0 1000 390" width="1000" height="390" xmlns="http://www.w3.org/2000/svg" xmlns:xlink="http://www.w3.org/1999/xlink" version="1.1"><rect width="1000" height="390" fill="#001220"></rect><g><g transform="translate(686 21)"><path d="M0 -60.7L52.6 -30.4L52.6 30.4L0 60.7L-52.6 30.4L-52.6 -30.4Z" fill="none" stroke="#55bbeb" stroke-width="2"></path></g><g transform="translate(318 350)"><path d="M0 -56L48.5 -28L48.5 28L0 56L-48.5 28L-48.5 -28Z" fill="none" stroke="#55bbeb" stroke-width="2"></path></g><g transform="translate(37 182)"><path d="M0 -45L39 -22.5L39 22.5L0 45L-39 22.5L-39 -22.5Z" fill="none" stroke="#55bbeb" stroke-width="2"></path></g><g transform="translate(26 320)"><path d="M0 -48L41.6 -24L41.6 24L0 48L-41.6 24L-41.6 -24Z" fill="none" stroke="#55bbeb" stroke-width="2"></path></g><g transform="translate(351 130)"><path d="M0 -44L38.1 -22L38.1 22L0 44L-38.1 22L-38.1 -22Z" fill="none" stroke="#55bbeb" stroke-width="2"></path></g><g transform="translate(480 267)"><path d="M0 -45L39 -22.5L39 22.5L0 45L-39 22.5L-39 -22.5Z" fill="none" stroke="#55bbeb" stroke-width="2"></path></g><g transform="translate(861 67)"><path d="M0 -56L48.5 -28L48.5 28L0 56L-48.5 28L-48.5 -28Z" fill="none" stroke="#55bbeb" stroke-width="2"></path></g><g transform="translate(542 115)"><path d="M0 -44L38.1 -22L38.1 22L0 44L-38.1 22L-38.1 -22Z" fill="none" stroke="#55bbeb" stroke-width="2"></path></g><g transform="translate(635 214)"><path d="M0 -58L50.2 -29L50.2 29L0 58L-50.2 29L-50.2 -29Z" fill="none" stroke="#55bbeb" stroke-width="2"></path></g></g></svg>