<svg id="visual" viewBox="0 0 600 900" width="600" height="900" xmlns="http://www.w3.org/2000/svg" xmlns:xlink="http://www.w3.org/1999/xlink" version="1.1"><rect x="0" y="0" width="600" height="900" fill="#001220"></rect><defs><linearGradient id="grad1_0" x1="0%" y1="100%" x2="100%" y2="0%"><stop offset="30%" stop-color="#9ee9dc" stop-opacity="1"></stop><stop offset="70%" stop-color="#9ee9dc" stop-opacity="1"></stop></linearGradient></defs><defs><linearGradient id="grad1_1" x1="0%" y1="100%" x2="100%" y2="0%"><stop offset="30%" stop-color="#9ee9dc" stop-opacity="1"></stop><stop offset="70%" stop-color="#001220" stop-opacity="1"></stop></linearGradient></defs><defs><linearGradient id="grad2_0" x1="0%" y1="100%" x2="100%" y2="0%"><stop offset="30%" stop-color="#9ee9dc" stop-opacity="1"></stop><stop offset="70%" stop-color="#9ee9dc" stop-opacity="1"></stop></linearGradient></defs><defs><linearGradient id="grad2_1" x1="0%" y1="100%" x2="100%" y2="0%"><stop offset="30%" stop-color="#001220" stop-opacity="1"></stop><stop offset="70%" stop-color="#9ee9dc" stop-opacity="1"></stop></linearGradient></defs><g transform="translate(600, 900)"><path d="M-513.8 0C-485.1 -39.6 -456.4 -79.3 -436.6 -117C-416.8 -154.7 -405.8 -190.4 -389.7 -225C-373.6 -259.6 -352.4 -293 -330.9 -330.9C-309.4 -368.9 -287.5 -411.5 -254.5 -440.8C-221.5 -470.2 -177.3 -486.3 -133 -496.3C-88.7 -506.2 -44.4 -510 0 -513.8L0 0Z" fill="#407582"></path><path d="M-256.9 0C-242.6 -19.8 -228.2 -39.6 -218.3 -58.5C-208.4 -77.3 -202.9 -95.2 -194.9 -112.5C-186.8 -129.8 -176.2 -146.5 -165.5 -165.5C-154.7 -184.4 -143.8 -205.7 -127.3 -220.4C-110.7 -235.1 -88.6 -243.2 -66.5 -248.1C-44.4 -253.1 -22.2 -255 0 -256.9L0 0Z" fill="#9ee9dc"></path></g><g transform="translate(0, 0)"><path d="M513.8 0C496.9 42.8 480.1 85.6 463.6 124.2C447.2 162.9 431.1 197.3 419.2 242C407.2 286.7 399.3 341.7 363.3 363.3C327.3 384.9 263.1 373.1 218.5 378.5C173.9 383.8 148.8 406.4 115.7 431.8C82.5 457.2 41.3 485.5 0 513.8L0 0Z" fill="#407582"></path><path d="M256.9 0C248.5 21.4 240.1 42.8 231.8 62.1C223.6 81.4 215.6 98.6 209.6 121C203.6 143.4 199.7 170.9 181.7 181.7C163.6 192.4 131.6 186.5 109.3 189.2C86.9 191.9 74.4 203.2 57.8 215.9C41.3 228.6 20.6 242.7 0 256.9L0 0Z" fill="#9ee9dc"></path></g></svg>