<svg id="visual" viewBox="0 0 2000 1000" width="2000" height="1000" xmlns="http://www.w3.org/2000/svg" xmlns:xlink="http://www.w3.org/1999/xlink" version="1.1"><rect x="0" y="0" width="2000" height="1000" fill="#001220"></rect><defs><linearGradient id="grad1_0" x1="50%" y1="100%" x2="100%" y2="0%"><stop offset="10%" stop-color="#9ee9dc" stop-opacity="1"></stop><stop offset="90%" stop-color="#9ee9dc" stop-opacity="1"></stop></linearGradient></defs><defs><linearGradient id="grad1_1" x1="50%" y1="100%" x2="100%" y2="0%"><stop offset="10%" stop-color="#9ee9dc" stop-opacity="1"></stop><stop offset="90%" stop-color="#001220" stop-opacity="1"></stop></linearGradient></defs><defs><linearGradient id="grad2_0" x1="0%" y1="100%" x2="50%" y2="0%"><stop offset="10%" stop-color="#9ee9dc" stop-opacity="1"></stop><stop offset="90%" stop-color="#9ee9dc" stop-opacity="1"></stop></linearGradient></defs><defs><linearGradient id="grad2_1" x1="0%" y1="100%" x2="50%" y2="0%"><stop offset="10%" stop-color="#001220" stop-opacity="1"></stop><stop offset="90%" stop-color="#9ee9dc" stop-opacity="1"></stop></linearGradient></defs><g transform="translate(2000, 1000)"><path d="M-950 0C-941.5 -84 -933 -168 -904.1 -242.3C-875.2 -316.5 -825.9 -380.9 -788.9 -455.5C-752 -530.1 -727.3 -614.8 -671.8 -671.8C-616.2 -728.7 -529.7 -757.9 -451 -781.2C-372.3 -804.5 -301.4 -821.9 -227.5 -849C-153.6 -876.2 -76.8 -913.1 0 -950L0 0Z" fill="#407582"></path><path d="M-475 0C-470.8 -42 -466.5 -84 -452.1 -121.1C-437.6 -158.2 -413 -190.5 -394.5 -227.8C-376 -265 -363.7 -307.4 -335.9 -335.9C-308.1 -364.3 -264.9 -378.9 -225.5 -390.6C-186.1 -402.2 -150.7 -410.9 -113.8 -424.5C-76.8 -438.1 -38.4 -456.6 0 -475L0 0Z" fill="#9ee9dc"></path></g><g transform="translate(0, 0)"><path d="M950 0C901.7 73.1 853.4 146.3 825.9 221.3C798.3 296.3 791.5 373.1 755.2 436C718.8 498.9 653 547.7 594.7 594.7C536.3 641.6 485.5 686.6 431 746.5C376.5 806.4 318.3 881.2 245.9 917.6C173.4 954 86.7 952 0 950L0 0Z" fill="#407582"></path><path d="M475 0C450.9 36.6 426.7 73.1 412.9 110.6C399.2 148.1 395.7 186.6 377.6 218C359.4 249.4 326.5 273.9 297.3 297.3C268.2 320.8 242.8 343.3 215.5 373.3C188.2 403.2 159.2 440.6 122.9 458.8C86.7 477 43.4 476 0 475L0 0Z" fill="#9ee9dc"></path></g></svg>