<svg id="visual" viewBox="0 0 2000 1000" width="2000" height="1000" xmlns="http://www.w3.org/2000/svg" xmlns:xlink="http://www.w3.org/1999/xlink" version="1.1"><rect x="0" y="0" width="2000" height="1000" fill="#001220"></rect><defs><linearGradient id="grad1_0" x1="50%" y1="0%" x2="100%" y2="100%"><stop offset="10%" stop-color="#e9e9e9" stop-opacity="1"></stop><stop offset="90%" stop-color="#e9e9e9" stop-opacity="1"></stop></linearGradient></defs><defs><linearGradient id="grad1_1" x1="50%" y1="0%" x2="100%" y2="100%"><stop offset="10%" stop-color="#e9e9e9" stop-opacity="1"></stop><stop offset="90%" stop-color="#6d747d" stop-opacity="1"></stop></linearGradient></defs><defs><linearGradient id="grad1_2" x1="50%" y1="0%" x2="100%" y2="100%"><stop offset="10%" stop-color="#001220" stop-opacity="1"></stop><stop offset="90%" stop-color="#6d747d" stop-opacity="1"></stop></linearGradient></defs><defs><linearGradient id="grad2_0" x1="0%" y1="0%" x2="50%" y2="100%"><stop offset="10%" stop-color="#e9e9e9" stop-opacity="1"></stop><stop offset="90%" stop-color="#e9e9e9" stop-opacity="1"></stop></linearGradient></defs><defs><linearGradient id="grad2_1" x1="0%" y1="0%" x2="50%" y2="100%"><stop offset="10%" stop-color="#6d747d" stop-opacity="1"></stop><stop offset="90%" stop-color="#e9e9e9" stop-opacity="1"></stop></linearGradient></defs><defs><linearGradient id="grad2_2" x1="0%" y1="0%" x2="50%" y2="100%"><stop offset="10%" stop-color="#6d747d" stop-opacity="1"></stop><stop offset="90%" stop-color="#001220" stop-opacity="1"></stop></linearGradient></defs><g transform="translate(2000, 0)"><path d="M0 1000C-133.2 987.5 -266.5 975 -382.7 923.9C-498.9 872.8 -598.1 783.2 -688 688C-778 592.9 -858.6 492.2 -909.1 376.6C-959.6 261 -979.8 130.5 -1000 0L0 0Z" fill="#36404c"></path><path d="M0 666.7C-88.8 658.3 -177.6 650 -255.1 615.9C-332.6 581.9 -398.7 522.1 -458.7 458.7C-518.6 395.2 -572.4 328.1 -606.1 251C-639.7 174 -653.2 87 -666.7 0L0 0Z" fill="#a9adb1"></path><path d="M0 333.3C-44.4 329.2 -88.8 325 -127.6 308C-166.3 290.9 -199.4 261.1 -229.3 229.3C-259.3 197.6 -286.2 164.1 -303 125.5C-319.9 87 -326.6 43.5 -333.3 0L0 0Z" fill="#e9e9e9"></path></g><g transform="translate(0, 1000)"><path d="M0 -1000C158.5 -1014.7 317 -1029.4 382.7 -923.9C448.4 -818.4 421.3 -592.7 487.9 -487.9C554.5 -383.1 714.8 -399.1 815.8 -337.9C916.8 -276.7 958.4 -138.4 1000 0L0 0Z" fill="#36404c"></path><path d="M0 -666.7C105.7 -676.5 211.3 -686.2 255.1 -615.9C298.9 -545.6 280.9 -395.2 325.3 -325.3C369.7 -255.4 476.5 -266.1 543.9 -225.3C611.2 -184.5 638.9 -92.2 666.7 0L0 0Z" fill="#a9adb1"></path><path d="M0 -333.3C52.8 -338.2 105.7 -343.1 127.6 -308C149.5 -272.8 140.4 -197.6 162.6 -162.6C184.8 -127.7 238.3 -133 271.9 -112.6C305.6 -92.2 319.5 -46.1 333.3 0L0 0Z" fill="#e9e9e9"></path></g></svg>